HIERARCHY
ROOT Hips
{
    OFFSET   0.000000   0.000000   0.000000
    CHANNELS 6 Xposition Yposition Zposition Zrotation Xrotation Yrotation
    JOINT Chest
    {
        OFFSET   0.000000   8.007230   0.000000
        CHANNELS 3 Zrotation Xrotation Yrotation
        JOINT Chest2
        {
            OFFSET   0.000000  22.077100   0.000000
            CHANNELS 3 Zrotation Xrotation Yrotation
            JOINT Neck
            {
                OFFSET   0.000000  23.255100   0.000000
                CHANNELS 3 Zrotation Xrotation Yrotation
                JOINT Head
                {
                    OFFSET   0.000000  14.370100   1.956600
                    CHANNELS 3 Zrotation Xrotation Yrotation
                    End Site
                    {
                        OFFSET   0.000000  19.566000   0.000000
                    }
                }
            }
            JOINT LeftCollar
            {
                OFFSET   3.911900  19.017000  -0.467063
                CHANNELS 3 Zrotation Xrotation Yrotation
                JOINT LeftShoulder
                {
                    OFFSET  10.383700   0.000000   0.000000
                    CHANNELS 3 Zrotation Xrotation Yrotation
                    JOINT LeftElbow
                    {
                        OFFSET  26.662100   0.001193   0.000980
                        CHANNELS 3 Zrotation Xrotation Yrotation
                        JOINT LeftWrist
                        {
                            OFFSET  28.869000  -0.000059  -0.000082
                            CHANNELS 3 Zrotation Xrotation Yrotation
                            JOINT LeftFinger0
                            {
                                OFFSET   2.044650  -2.323450   3.252850
                                CHANNELS 3 Zrotation Xrotation Yrotation
                                JOINT LeftFinger01
                                {
                                    OFFSET   3.088130   0.000000   0.000000
                                    CHANNELS 3 Zrotation Xrotation Yrotation
                                    JOINT LeftFinger02
                                    {
                                        OFFSET   2.639460   0.000000   0.000000
                                        CHANNELS 3 Zrotation Xrotation Yrotation
                                        End Site
                                        {
                                            OFFSET   2.582190   0.000000   0.000000
                                        }
                                    }
                                }
                            }
                            JOINT LeftFinger1
                            {
                                OFFSET   8.364480   0.000000   3.252850
                                CHANNELS 3 Zrotation Xrotation Yrotation
                                JOINT LeftFinger11
                                {
                                    OFFSET   4.646930   0.000000   0.000000
                                    CHANNELS 3 Zrotation Xrotation Yrotation
                                    JOINT LeftFinger12
                                    {
                                        OFFSET   2.323470   0.000000   0.000000
                                        CHANNELS 3 Zrotation Xrotation Yrotation
                                        End Site
                                        {
                                            OFFSET   2.273050   0.000000   0.000000
                                        }
                                    }
                                }
                            }
                            JOINT LeftFinger2
                            {
                                OFFSET   8.364490   0.000016   1.078090
                                CHANNELS 3 Zrotation Xrotation Yrotation
                                JOINT LeftFinger21
                                {
                                    OFFSET   5.111610   0.000000   0.000000
                                    CHANNELS 3 Zrotation Xrotation Yrotation
                                    JOINT LeftFinger22
                                    {
                                        OFFSET   2.788150   0.000016   0.000000
                                        CHANNELS 3 Zrotation Xrotation Yrotation
                                        End Site
                                        {
                                            OFFSET   2.727660   0.000000   0.000000
                                        }
                                    }
                                }
                            }
                            JOINT LeftFinger3
                            {
                                OFFSET   7.899780   0.000015  -1.078090
                                CHANNELS 3 Zrotation Xrotation Yrotation
                                JOINT LeftFinger31
                                {
                                    OFFSET   4.646930   0.000000   0.000000
                                    CHANNELS 3 Zrotation Xrotation Yrotation
                                    JOINT LeftFinger32
                                    {
                                        OFFSET   2.323470   0.000000   0.000000
                                        CHANNELS 3 Zrotation Xrotation Yrotation
                                        End Site
                                        {
                                            OFFSET   2.273050   0.000000   0.000000
                                        }
                                    }
                                }
                            }
                            JOINT LeftFinger4
                            {
                                OFFSET   7.435090   0.000000  -3.252850
                                CHANNELS 3 Zrotation Xrotation Yrotation
                                JOINT LeftFinger41
                                {
                                    OFFSET   3.717550   0.000000   0.000000
                                    CHANNELS 3 Zrotation Xrotation Yrotation
                                    JOINT LeftFinger42
                                    {
                                        OFFSET   1.858770   0.000000   0.000000
                                        CHANNELS 3 Zrotation Xrotation Yrotation
                                        End Site
                                        {
                                            OFFSET   1.818440   0.000000   0.000000
                                        }
                                    }
                                }
                            }
                        }
                    }
                }
            }
            JOINT RightCollar
            {
                OFFSET  -3.911910  19.017000  -0.467062
                CHANNELS 3 Zrotation Xrotation Yrotation
                JOINT RightShoulder
                {
                    OFFSET -10.383700   0.000014   0.000000
                    CHANNELS 3 Zrotation Xrotation Yrotation
                    JOINT RightElbow
                    {
                        OFFSET -26.662100   0.001225   0.001091
                        CHANNELS 3 Zrotation Xrotation Yrotation
                        JOINT RightWrist
                        {
                            OFFSET -28.869000  -0.000020  -0.000085
                            CHANNELS 3 Zrotation Xrotation Yrotation
                            JOINT RightFinger0
                            {
                                OFFSET  -2.044650  -2.323490   3.252850
                                CHANNELS 3 Zrotation Xrotation Yrotation
                                JOINT RightFinger01
                                {
                                    OFFSET  -3.088130   0.000000   0.000000
                                    CHANNELS 3 Zrotation Xrotation Yrotation
                                    JOINT RightFinger02
                                    {
                                        OFFSET  -2.639460   0.000000   0.000000
                                        CHANNELS 3 Zrotation Xrotation Yrotation
                                        End Site
                                        {
                                            OFFSET  -2.582190   0.000000   0.000000
                                        }
                                    }
                                }
                            }
                            JOINT RightFinger1
                            {
                                OFFSET  -8.364480   0.000000   3.252850
                                CHANNELS 3 Zrotation Xrotation Yrotation
                                JOINT RightFinger11
                                {
                                    OFFSET  -4.646930   0.000000   0.000000
                                    CHANNELS 3 Zrotation Xrotation Yrotation
                                    JOINT RightFinger12
                                    {
                                        OFFSET  -2.323470   0.000000   0.000000
                                        CHANNELS 3 Zrotation Xrotation Yrotation
                                        End Site
                                        {
                                            OFFSET  -2.273050   0.000000   0.000000
                                        }
                                    }
                                }
                            }
                            JOINT RightFinger2
                            {
                                OFFSET  -8.364480   0.000000   1.078090
                                CHANNELS 3 Zrotation Xrotation Yrotation
                                JOINT RightFinger21
                                {
                                    OFFSET  -5.111620   0.000000   0.000000
                                    CHANNELS 3 Zrotation Xrotation Yrotation
                                    JOINT RightFinger22
                                    {
                                        OFFSET  -2.788160   0.000000   0.000000
                                        CHANNELS 3 Zrotation Xrotation Yrotation
                                        End Site
                                        {
                                            OFFSET  -2.727660   0.000000   0.000000
                                        }
                                    }
                                }
                            }
                            JOINT RightFinger3
                            {
                                OFFSET  -7.899780   0.000000  -1.078090
                                CHANNELS 3 Zrotation Xrotation Yrotation
                                JOINT RightFinger31
                                {
                                    OFFSET  -4.646930   0.000000   0.000000
                                    CHANNELS 3 Zrotation Xrotation Yrotation
                                    JOINT RightFinger32
                                    {
                                        OFFSET  -2.323470   0.000000   0.000000
                                        CHANNELS 3 Zrotation Xrotation Yrotation
                                        End Site
                                        {
                                            OFFSET  -2.273050   0.000000   0.000000
                                        }
                                    }
                                }
                            }
                            JOINT RightFinger4
                            {
                                OFFSET  -7.435090   0.000000  -3.252850
                                CHANNELS 3 Zrotation Xrotation Yrotation
                                JOINT RightFinger41
                                {
                                    OFFSET  -3.717550   0.000000   0.000000
                                    CHANNELS 3 Zrotation Xrotation Yrotation
                                    JOINT RightFinger42
                                    {
                                        OFFSET  -1.858760   0.000000   0.000000
                                        CHANNELS 3 Zrotation Xrotation Yrotation
                                        End Site
                                        {
                                            OFFSET  -1.818440   0.000000   0.000000
                                        }
                                    }
                                }
                            }
                        }
                    }
                }
            }
        }
    }
    JOINT LeftHip
    {
        OFFSET   9.783030   0.000000   0.000000
        CHANNELS 3 Zrotation Xrotation Yrotation
        JOINT LeftKnee
        {
            OFFSET   0.000063 -41.789100   0.000608
            CHANNELS 3 Zrotation Xrotation Yrotation
            JOINT LeftAnkle
            {
                OFFSET   0.000048 -41.133200  -0.000184
                CHANNELS 3 Zrotation Xrotation Yrotation
                JOINT LeftToe
                {
                    OFFSET   0.000000  -6.358960  14.674500
                    CHANNELS 3 Zrotation Xrotation Yrotation
                    End Site
                    {
                        OFFSET   0.000000   0.000000   3.913200
                    }
                }
            }
        }
    }
    JOINT RightHip
    {
        OFFSET  -9.783030   0.000000   0.000000
        CHANNELS 3 Zrotation Xrotation Yrotation
        JOINT RightKnee
        {
            OFFSET   0.000071 -41.789100   0.001239
            CHANNELS 3 Zrotation Xrotation Yrotation
            JOINT RightAnkle
            {
                OFFSET   0.000037 -41.133200  -0.000166
                CHANNELS 3 Zrotation Xrotation Yrotation
                JOINT RightToe
                {
                    OFFSET   0.000000  -6.358960  14.674500
                    CHANNELS 3 Zrotation Xrotation Yrotation
                    End Site
                    {
                        OFFSET   0.000000   0.000000   3.913200
                    }
                }
            }
        }
    }
}
MOTION
Frames: 5
Frame Time:   0.016667
  1.392100  89.474500  -2.026110  -2.452910  -5.922320   2.630920   1.226000   3.739360   0.605045   2.420050   7.490670   1.133220   0.865399  -0.150863  -0.002756   1.421580  -0.305195   7.302850  -0.024277  -4.013310   1.589420 -53.206800 -19.858200 -84.747300  -1.318950 -33.247800 -73.423000  56.086700   9.503800  -8.858160  37.363200  19.498500 -60.074400  -8.421040  -0.007823  -0.001088   0.789482  -0.001729   0.002238 -15.027800   3.306310 -12.119200 -12.582500   0.003191  -0.003494  -8.807780   0.002798  -0.003067 -15.046200   1.194940  -4.431700 -15.092400   0.004834  -0.003240 -10.051500   0.004381  -0.001687 -14.941400   1.191950  -4.433510 -14.987600   0.006081  -0.002246  -9.981760   0.004449  -0.001186 -14.837200   0.718325  -2.714680 -22.279800   0.004390  -0.003260 -14.838300   0.002721   0.001489  -6.131290  -7.113230   6.429450  45.689900 -18.769200  75.857000 -31.774500 -31.481700  55.142100 -73.197300   0.397574  29.128200 -44.763700  39.357100  81.690700   7.281910  -0.002314  -0.001194  -1.359030  -0.004226  -0.007900  20.061900  -0.841707  -2.303950  16.428400   0.003842  -0.001638  11.500000   0.001296  -0.002823  19.999900  -1.209350  -3.318640  20.034800   0.000497   0.005727  13.343200   0.008019  -0.004389  18.979000  -4.091000 -11.713300  19.399100  -0.001032  -0.003040  12.919700   0.000491  -0.005288  12.620300  -7.324260 -29.649700  21.841100  -0.004260   0.007874  14.546200  -0.002118   0.005796   5.250220   8.061400   3.082880   1.946070   0.093582  10.505500  -2.175190  -0.897227   0.976921   0.000000   0.000000   0.000000   0.380646   5.420120  -5.574900   1.362660   3.582680 -10.685400   1.634050  -2.822460  -3.938410   0.000000   0.000000   0.000000
  1.392120  89.471500  -2.008350  -2.453940  -5.908520   2.616150   1.226210   3.723000   0.593652   2.421330   7.457710   1.110690   0.857946  -0.142612  -0.002695   1.409570  -0.288544   7.329400  -0.071137  -3.956120   1.632460 -53.143900 -19.847300 -84.479000  -1.295220 -33.317600 -73.651300  56.094800   9.526130  -8.904180  37.363700  19.443100 -60.007800  -8.578570  -0.007971  -0.001152   0.710724  -0.001810   0.002302 -15.096000   3.318400 -12.111500 -12.639300   0.003205  -0.003489  -8.847560   0.002813  -0.003077 -15.109300   1.197790  -4.427170 -15.155600   0.004831  -0.003281 -10.093600   0.004377  -0.001715 -14.959500   1.186200  -4.430240 -15.005300   0.006038  -0.002253  -9.993560   0.004435  -0.001203 -14.807500   0.977151  -3.692730 -22.258800   0.004491  -0.003358 -14.824400   0.002809   0.001434  -6.041890  -7.019300   6.445390  45.892700 -18.835100  75.610900 -31.653800 -31.323400  55.481600 -73.129500   0.382636  29.032800 -44.761400  39.334500  81.656600   7.311150  -0.002401  -0.001249  -1.344420  -0.004197  -0.008011  20.075200  -0.868193  -2.374020  16.439900   0.003911  -0.001687  11.507900   0.001301  -0.002855  20.030100  -1.237250  -3.389430  20.066600   0.000519   0.005791  13.364400   0.007987  -0.004464  19.014000  -4.094360 -11.705600  19.433900  -0.001049  -0.003079  12.942900   0.000489  -0.005369  12.643500  -7.335540 -29.647300  21.880800  -0.004355   0.008013  14.572600  -0.002050   0.005940   5.250950   8.077130   3.083580   1.941360   0.057028  10.505900  -2.173310  -0.893956   0.995048   0.000000   0.000000   0.000000   0.374375   5.373710  -5.575280   1.360660   3.615400 -10.677100   1.634340  -2.822190  -3.932550   0.000000   0.000000   0.000000
  1.392190  89.467500  -1.994430  -2.456340  -5.890100   2.594320   1.226360   3.705050   0.584987   2.422300   7.421650   1.093640   0.852012  -0.125601  -0.002620   1.401660  -0.254383   7.355880  -0.124734  -3.901540   1.666290 -53.171500 -19.839300 -84.215600  -1.219980 -33.286900 -73.843300  56.070100   9.484160  -8.873370  37.320800  19.311500 -59.910200  -8.829730  -0.008122  -0.001186   0.585141  -0.001891   0.002361 -15.231100   3.332070 -12.055700 -12.749800   0.003216  -0.003490  -8.924900   0.002833  -0.003077 -15.226400   1.190960  -4.371260 -15.271900   0.004822  -0.003321 -10.171000   0.004369  -0.001748 -15.008200   1.173220  -4.376040 -15.053000   0.005994  -0.002262 -10.025300   0.004411  -0.001224 -14.805100   1.121070  -4.233180 -22.274900   0.004601  -0.003462 -14.835000   0.002895   0.001388  -5.944930  -6.933260   6.466000  46.131600 -18.896100  75.328300 -31.493100 -31.147400  55.895400 -73.064000   0.373234  28.906400 -44.726200  39.305500  81.622300   7.367420  -0.002475  -0.001307  -1.316290  -0.004168  -0.008125  20.159200  -0.894141  -2.433060  16.509100   0.003986  -0.001727  11.556300   0.001306  -0.002879  20.128700  -1.261430  -3.438330  20.166500   0.000545   0.005864  13.431000   0.007963  -0.004552  19.101100  -4.127240 -11.725000  19.523200  -0.001069  -0.003137  13.002400   0.000494  -0.005442  12.725900  -7.388450 -29.653600  22.025800  -0.004456   0.008155  14.669200  -0.001978   0.006081   5.251590   8.077390   3.089810   1.937060   0.044081  10.505900  -2.173330  -0.899110   1.015350  -0.000000   0.000000   0.000000   0.367794   5.431260  -5.566420   1.376070   3.537940 -10.673700   1.635120  -2.818500  -3.921810  -0.000000   0.000000   0.000000
  1.392290  89.463100  -1.981500  -2.459330  -5.870870   2.570030   1.226140   3.684860   0.574077   2.422700   7.381050   1.072150   0.849281  -0.102296  -0.002540   1.395210  -0.207489   7.388870  -0.184207  -3.835910   1.707970 -53.239700 -19.842500 -83.903500  -1.171730 -33.196400 -74.089200  56.008500   9.409950  -8.786050  37.272900  19.176400 -59.819800  -9.086310  -0.008270  -0.001228   0.456847  -0.001973   0.002421 -15.379100   3.345380 -11.978400 -12.870100   0.003228  -0.003492  -9.009070   0.002853  -0.003077 -15.352800   1.180840  -4.292780 -15.397100   0.004815  -0.003356 -10.254400   0.004362  -0.001784 -15.064400   1.159200  -4.298640 -15.107800   0.005954  -0.002273 -10.061800   0.004386  -0.001246 -14.815200   1.169860  -4.414190 -22.290900   0.004712  -0.003565 -14.845700   0.002981   0.001343  -5.838340  -6.835960   6.497620  46.368400 -18.950700  75.001300 -31.334500 -30.982200  56.344200 -72.980200   0.368968  28.747100 -44.701700  39.286800  81.601700   7.406600  -0.002545  -0.001366  -1.296720  -0.004140  -0.008239  20.266100  -0.916360  -2.479720  16.597600   0.004061  -0.001767  11.618300   0.001310  -0.002902  20.248000  -1.278090  -3.460190  20.286600   0.000574   0.005937  13.510900   0.007939  -0.004640  19.218300  -4.156270 -11.744400  19.646200  -0.001091  -0.003195  13.084400   0.000500  -0.005514  12.831900  -7.453110 -29.660800  22.212300  -0.004556   0.008295  14.793400  -0.001905   0.006224   5.252090   8.077650   3.095560   1.931610   0.034749  10.505800  -2.173300  -0.906264   1.036690   0.000000   0.000000   0.000000   0.363891   5.488800  -5.557560   1.391430   3.460490 -10.669400   1.636130  -2.813220  -3.908650   0.000000   0.000000  -0.000000
  1.392450  89.458900  -1.967670  -2.462170  -5.853750   2.546310   1.224910   3.661160   0.556116   2.421540   7.333240   1.036680   0.852830  -0.071845  -0.002460   1.399410  -0.145878   7.436440  -0.247914  -3.755720   1.776270 -53.339600 -19.857900 -83.472800  -1.235850 -33.044300 -74.493500  55.897400   9.341120  -8.639080  37.248000  19.109500 -59.777800  -9.257450  -0.008406  -0.001327   0.371273  -0.002055   0.002490 -15.494100   3.355800 -11.923400 -12.963700   0.003247  -0.003491  -9.074590   0.002869  -0.003079 -15.451800   1.175930  -4.246080 -15.495400   0.004815  -0.003375 -10.319900   0.004356  -0.001822 -15.118400   1.150820  -4.252920 -15.161300   0.005924  -0.002287 -10.097400   0.004367  -0.001271 -14.796000   1.147130  -4.334570 -22.259300   0.004817  -0.003665 -14.824700   0.003070   0.001294  -5.719600  -6.710020   6.552090  46.552600 -18.992200  74.615200 -31.226900 -30.860800  56.787400 -72.849900   0.379414  28.533500 -44.761600  39.315100  81.634300   7.371970  -0.002616  -0.001425  -1.314040  -0.004116  -0.008346  20.349700  -0.929123  -2.503220  16.666300   0.004125  -0.001814  11.666500   0.001303  -0.002933  20.362300  -1.281860  -3.448870  20.400800   0.000605   0.006006  13.587000   0.007910  -0.004714  19.395300  -4.105910 -11.518400  19.811000  -0.001112  -0.003232  13.194100   0.000501  -0.005592  12.951900  -7.494220 -29.573000  22.401100  -0.004646   0.008429  14.919100  -0.001831   0.006376   5.252870   8.083890   3.095090   1.921680   0.014467  10.508700  -2.172380  -0.907718   1.058200  -0.000000   0.000000   0.000000   0.357335   5.398880  -5.563370   1.389920   3.532930 -10.657100   1.637060  -2.809450  -3.894910   0.000000   0.000000  -0.000000
